<svg width="434" height="427" viewBox="0 0 434 427" fill="none" xmlns="http://www.w3.org/2000/svg">
<path d="M1 246.416L66.8013 269.245L81.106 169.367C76.5285 217.308 94.457 265.44 103.993 283.513V329.172C100.179 342.489 92.5497 371.977 92.5497 383.392C92.5497 394.806 119.252 416.685 132.603 426.197H298.536C309.98 414.782 334.012 388.528 338.589 374.831C332.868 346.294 327.146 309.196 327.146 280.66C350.033 257.83 351.94 198.854 350.033 172.22L364.338 269.245L433 246.416C433 228.152 423.464 187.44 418.695 169.367C418.695 156.049 418.123 121.425 415.834 89.4638C412.974 49.5124 358.616 35.244 350.033 35.244H304.258L267.066 1H161.212C158.923 1 137.371 23.8294 126.881 35.244C121.159 36.1953 106.282 38.0977 92.5497 38.0977C29.6093 38.0977 15.3046 83.7564 12.4437 89.4638C9.58278 95.1711 15.3046 155.098 9.58278 172.22C5.0053 185.918 1.95364 227.391 1 246.416Z" fill="#FFEEA3" stroke="black" stroke-linejoin="round"/>
<path d="M215.569 274.952C212.709 289.22 194.971 314.904 146.907 314.904" stroke="black" stroke-linejoin="round"/>
<path d="M215.569 274.952C220.338 288.269 235.596 314.904 284.232 314.904" stroke="black" stroke-linejoin="round"/>
<path d="M215.569 332.026C221.291 345.343 235.596 371.977 284.232 371.977" stroke="black" stroke-linejoin="round"/>
<path d="M215.569 332.026C210.801 345.343 195.543 371.977 146.907 371.977" stroke="black" stroke-linejoin="round"/>
<path d="M81.1055 169.367C84.92 182.684 101.132 212.172 126.88 212.172C164.072 212.172 155.49 212.172 164.072 212.172C185.656 212.172 215.569 180.781 215.569 163.659C215.569 180.781 244.178 212.172 267.066 212.172C287.092 212.172 292.814 212.172 301.397 212.172C315.702 212.172 347.172 200.757 350.033 172.22" stroke="black" stroke-linejoin="round"/>
<ellipse cx="129.741" cy="175.074" rx="5.72185" ry="5.70734" fill="black"/>
<ellipse cx="301.398" cy="175.074" rx="5.72185" ry="5.70734" fill="black"/>
<path d="M215.57 272.099C215.57 304.44 215.57 371.977 215.57 383.392M215.57 383.392C215.57 397.66 232.735 423.343 264.206 423.343M215.57 383.392C212.709 396.709 198.976 423.343 166.934 423.343" stroke="black" stroke-linejoin="round"/>
<path d="M79.3847 211.327C79.3058 210.728 79.772 210.197 80.3761 210.197H350.264C350.853 210.197 351.314 210.704 351.26 211.29L350.014 224.597C349.966 225.111 349.535 225.504 349.019 225.504H82.1283C81.6265 225.504 81.2024 225.132 81.1369 224.635L79.3847 211.327Z" fill="#0C0C0C"/>
<rect x="189.787" y="206.795" width="45.9213" height="22.1102" rx="3" fill="#575757"/>
<path d="M206.115 219.11V219.795H203.042V219.11H206.115ZM203.302 219.11V220.841H202.476L202.429 219.11H203.302ZM206.748 219.11L206.672 220.844H205.866V219.11H206.748ZM205.632 215.53V216.218H203.578V215.53H205.632ZM206.258 215.53V219.795H205.383V215.53H206.258ZM203.469 215.53H204.348L204.234 217.267C204.216 217.554 204.185 217.808 204.14 218.029C204.097 218.247 204.045 218.44 203.982 218.606C203.922 218.772 203.854 218.917 203.78 219.042C203.706 219.165 203.628 219.273 203.546 219.365C203.464 219.454 203.381 219.535 203.297 219.605C203.213 219.673 203.131 219.737 203.05 219.795H202.547V219.11H202.743C202.799 219.063 202.859 218.998 202.922 218.916C202.986 218.834 203.047 218.724 203.103 218.585C203.162 218.445 203.213 218.267 203.256 218.052C203.3 217.837 203.334 217.576 203.355 217.267L203.469 215.53ZM208.86 219.08V217.668C208.86 217.567 208.843 217.48 208.81 217.408C208.777 217.333 208.725 217.276 208.655 217.235C208.587 217.194 208.498 217.173 208.388 217.173C208.295 217.173 208.214 217.19 208.145 217.223C208.077 217.254 208.024 217.3 207.987 217.361C207.95 217.419 207.931 217.489 207.931 217.569H207.088C207.088 217.434 207.119 217.306 207.181 217.185C207.244 217.064 207.335 216.957 207.454 216.866C207.573 216.772 207.715 216.699 207.879 216.646C208.045 216.593 208.23 216.567 208.435 216.567C208.681 216.567 208.9 216.608 209.091 216.69C209.283 216.772 209.433 216.895 209.543 217.059C209.654 217.223 209.71 217.428 209.71 217.674V219.031C209.71 219.204 209.72 219.347 209.742 219.458C209.763 219.568 209.795 219.663 209.836 219.745V219.795H208.983C208.942 219.709 208.911 219.602 208.889 219.473C208.87 219.342 208.86 219.211 208.86 219.08ZM208.971 217.865L208.977 218.342H208.506C208.394 218.342 208.298 218.355 208.216 218.38C208.133 218.406 208.066 218.442 208.013 218.489C207.961 218.534 207.922 218.586 207.896 218.647C207.873 218.707 207.861 218.774 207.861 218.846C207.861 218.918 207.878 218.984 207.911 219.042C207.944 219.099 207.992 219.144 208.054 219.177C208.117 219.208 208.19 219.224 208.274 219.224C208.401 219.224 208.511 219.199 208.605 219.148C208.699 219.097 208.771 219.035 208.822 218.96C208.875 218.886 208.902 218.816 208.904 218.749L209.127 219.107C209.095 219.187 209.052 219.27 208.998 219.356C208.945 219.442 208.878 219.523 208.796 219.599C208.714 219.673 208.615 219.735 208.5 219.784C208.384 219.83 208.248 219.854 208.09 219.854C207.888 219.854 207.706 219.814 207.542 219.734C207.38 219.652 207.251 219.539 207.155 219.397C207.061 219.252 207.014 219.088 207.014 218.905C207.014 218.739 207.046 218.591 207.108 218.462C207.171 218.333 207.262 218.225 207.383 218.137C207.507 218.047 207.66 217.98 207.843 217.935C208.027 217.888 208.24 217.865 208.482 217.865H208.971ZM211.927 216.625V219.795H211.081V216.625H211.927ZM212.947 216.625V217.279H210.076V216.625H212.947ZM216.049 216.625V219.795H215.203V216.625H216.049ZM215.651 217.982V218.641C215.587 218.674 215.504 218.705 215.402 218.735C215.3 218.764 215.193 218.787 215.08 218.805C214.968 218.821 214.865 218.828 214.769 218.828C214.465 218.828 214.203 218.786 213.984 218.703C213.767 218.619 213.6 218.487 213.483 218.307C213.366 218.127 213.307 217.897 213.307 217.616V216.622H214.151V217.616C214.151 217.758 214.173 217.87 214.216 217.953C214.258 218.033 214.325 218.089 214.415 218.122C214.507 218.154 214.625 218.169 214.769 218.169C214.871 218.169 214.969 218.161 215.065 218.146C215.161 218.13 215.257 218.109 215.352 218.081C215.448 218.054 215.548 218.021 215.651 217.982ZM217.541 218.618L218.604 216.625H219.448V219.795H218.604V217.8L217.541 219.795H216.697V216.625H217.541V218.618ZM220.998 216.625V219.795H220.154V216.625H220.998ZM223.057 216.625L221.692 218.609H220.848L220.746 217.829H221.305L221.988 216.625H223.057ZM222.026 219.795L221.247 218.456L221.982 218.049L223.157 219.795H222.026Z" fill="white"/>
</svg>
