<svg width="375" height="249" viewBox="0 0 375 249" fill="none" xmlns="http://www.w3.org/2000/svg">
<g clip-path="url(#clip0_315_1771)">
<circle cx="187" cy="100" r="100" fill="#FFD1A7"/>
<path fill-rule="evenodd" clip-rule="evenodd" d="M115.086 51.9143C113.886 56.3714 114.486 61.5428 117 65.4571C119.629 69.5428 124.086 71.9428 128.686 73.2285C132.4 74.2857 136.257 74.6857 140.086 74.8C141.029 74.8285 144.029 74.3714 144.629 74.8857C144.857 75.0857 144.943 75.7714 145.057 76.0571C147 80.1428 148.229 84.7714 149.743 89.0285C151.629 94.2571 153.514 99.4571 155.371 104.686C156.086 106.629 157.171 108.2 156.486 110.114C154.914 114.457 152.714 118.686 150.829 122.914C147.943 129.457 148.143 130.743 144.286 137.771C143.114 139.971 142 141.743 141.286 142.857C140.2 142.514 137.971 142 135.571 142.857C130.743 144.629 128.314 151 129.857 154.286C131.343 157.429 136.486 157.743 146.286 157.8C166.743 157.914 172.743 156.743 184.886 156.8C192 156.829 197.829 157.229 215.457 157.343C221.257 157.371 226.714 157.343 232.686 154.314C235.457 152.914 241.857 149.657 244.114 142.886C246 137.2 244.971 128.914 242.257 125.771C241.943 125.4 240.686 124.286 241.086 123.057C241.4 122.086 243.029 120.857 243.657 120.029C246.971 115.714 253.086 100.514 246.4 87.8571C243.114 81.6285 237.314 76.8571 236 77.6571C235.371 78.0285 235.943 79.5428 236.371 82.9714C236.857 86.8857 236.629 89.6857 236.457 93.6571C236.343 96.6 236.371 108.743 230.971 107.486C228 106.771 225.286 103.286 223.371 101.114C220.286 97.6 217.4 93.8571 214.314 90.3428C210.429 85.9143 206.2 81.7714 201.543 78.1428C198.829 76.0285 195.857 74.4 193.057 72.4285C191.571 71.4 189.314 69.4571 186.571 64.6571C183.886 59.9428 175.771 43.8 165.543 21.4571C165.029 20.3714 164 18.6 162.686 18.6C159.714 18.6 157.286 27.9714 155.543 37.1714C150.771 38.1143 146.029 39.0857 141.257 40.0285C140.314 41.4571 139.343 42.8857 138.4 44.3143C137.457 45.7428 136.486 47.1714 135.543 48.6C128.743 49.6857 121.914 50.8 115.086 51.9143Z" fill="white"/>
<path fill-rule="evenodd" clip-rule="evenodd" d="M177 75.7142C177 75.7142 175.971 84.2857 176.057 84.2857C176.114 84.2857 170.086 85.6571 164.629 92.8571C163.343 93.3142 158.429 91.6571 162.714 100.486C166.514 104.657 175.4 104.514 173.2 113.829C171 123.114 171.886 135 175.114 139.543C178.343 144.086 175.714 148.657 172.257 150.971C168.8 153.286 165.286 156.743 170.343 157.629C175.4 158.514 181.571 158.314 182.714 151.914C186.829 129.314 190.571 125.286 205.571 130C195.229 127.914 176.771 136 195.086 150.943C195.171 150.943 184.486 150.686 184.6 154.743C184.6 157.086 187 156.571 198.886 156.657C210.771 156.743 227.314 158.486 227.457 148.086C227.486 148.2 241 149.4 241.743 134.743C241.743 124.371 233.971 116.914 235.086 105.229C235.229 105.143 234.629 102.829 239.857 104.286C245.086 105.743 246.2 96.5428 238.914 96.6571C231.629 96.7714 224.971 100.086 227.486 112.857C230 125.629 240.114 138.457 228.429 141.429C228.371 141.457 227.829 127.743 217 120.486C206.171 113.2 198.371 115 193.2 95.7142C188.286 82.1428 177 75.7142 177 75.7142Z" fill="#FFD1A7"/>
</g>
<path d="M125.798 232.984C125.542 234.52 125.414 235.693 125.414 236.504C125.414 240.643 126.054 243.736 127.334 245.784C124.774 247.704 122.107 248.664 119.334 248.664C116.561 248.664 114.577 247.875 113.382 246.296C112.187 244.675 111.59 242.285 111.59 239.128C111.59 235.928 112.934 226.904 115.622 212.056L112.23 205.208C117.051 202.093 121.446 200.536 125.414 200.536C126.523 200.536 127.739 200.749 129.062 201.176C130.385 201.56 131.323 202.008 131.878 202.52C135.035 201.283 137.958 200.664 140.646 200.664C144.657 200.664 147.814 202.072 150.118 204.888C152.465 207.661 153.638 211.032 153.638 215C153.638 219.779 151.91 224.045 148.454 227.8C146.79 229.635 144.55 231.107 141.734 232.216C138.918 233.325 136.038 233.88 133.094 233.88C130.193 233.88 127.761 233.581 125.798 232.984ZM127.014 225.688C127.611 225.816 128.23 225.88 128.87 225.88C131.601 225.88 134.033 224.92 136.166 223C138.299 221.08 139.366 218.712 139.366 215.896C139.366 213.933 138.79 212.269 137.638 210.904C136.529 209.539 134.95 208.856 132.902 208.856C132.049 208.856 131.067 209.027 129.958 209.368C129.105 215.213 128.123 220.653 127.014 225.688ZM174.809 248.6C168.964 248.6 164.441 247.085 161.241 244.056C158.084 241.027 156.505 236.931 156.505 231.768C156.505 224.899 158.852 219.331 163.545 215.064C168.281 210.755 174.212 208.6 181.337 208.6C185.305 208.6 188.313 209.496 190.361 211.288C192.409 213.037 193.433 215.363 193.433 218.264C193.433 222.232 191.492 225.539 187.609 228.184C183.769 230.787 177.817 232.109 169.753 232.152C169.881 234.883 170.5 237.037 171.609 238.616C172.718 240.152 174.105 240.92 175.769 240.92C177.433 240.92 178.862 240.365 180.057 239.256C181.294 238.147 181.913 236.333 181.913 233.816C188.142 233.816 191.257 235.288 191.257 238.232C191.257 240.749 189.721 243.117 186.649 245.336C183.577 247.512 179.63 248.6 174.809 248.6ZM180.249 216.088C178.073 216.088 176.068 217.176 174.233 219.352C172.441 221.528 171.14 224.088 170.329 227.032C174.596 226.691 177.796 225.731 179.929 224.152C182.105 222.531 183.193 220.824 183.193 219.032C183.193 218.179 182.916 217.475 182.361 216.92C181.849 216.365 181.145 216.088 180.249 216.088ZM199.976 223.896C199.677 222.701 199.528 221.592 199.528 220.568C199.528 218.477 200.146 216.899 201.384 215.832C202.621 214.765 204.221 214.232 206.184 214.232C206.184 212.013 205.608 209.603 204.456 207C206.546 205.464 208.445 204.312 210.152 203.544C211.901 202.733 213.736 202.328 215.656 202.328C217.576 202.328 218.898 202.691 219.624 203.416C220.392 204.099 220.776 205.165 220.776 206.616C220.776 208.067 220.477 210.328 219.88 213.4C221.586 213.144 223.314 212.781 225.064 212.312C225.362 213.208 225.512 214.36 225.512 215.768C225.512 217.176 224.957 218.499 223.848 219.736C222.781 220.931 221.202 221.528 219.112 221.528H218.152C216.616 228.483 215.848 233.837 215.848 237.592C215.848 241.347 216.509 243.971 217.832 245.464C215.442 247.555 212.904 248.6 210.216 248.6C207.528 248.6 205.586 247.811 204.392 246.232C203.24 244.611 202.664 242.115 202.664 238.744C202.664 236.696 203.41 231.32 204.904 222.616C203.197 222.915 201.554 223.341 199.976 223.896ZM250.061 217.112C248.482 217.581 247.224 218.264 246.285 219.16C245.346 220.013 244.514 221.251 243.789 222.872C251 223.939 256.077 225.475 259.021 227.48C261.965 229.485 263.437 232.344 263.437 236.056C263.437 238.403 262.776 240.451 261.453 242.2C260.13 243.907 258.466 245.208 256.461 246.104C252.536 247.768 248.674 248.6 244.877 248.6C234.082 248.6 228.685 246.275 228.685 241.624C228.685 239.277 229.73 236.931 231.821 234.584C232.888 236.077 234.488 237.357 236.621 238.424C238.797 239.491 240.909 240.024 242.957 240.024C246.498 240.024 248.632 238.467 249.357 235.352C242.872 234.584 238.178 233.133 235.277 231C232.376 228.867 230.925 225.859 230.925 221.976C230.925 218.904 231.928 216.323 233.933 214.232C235.981 212.141 238.498 210.691 241.485 209.88C244.514 209.027 247.906 208.6 251.661 208.6C255.458 208.6 258.573 209.325 261.005 210.776C263.48 212.184 264.717 213.912 264.717 215.96C264.717 218.008 263.992 219.587 262.541 220.696C261.133 221.805 259.576 222.36 257.869 222.36C256.205 222.36 254.669 221.912 253.261 221.016C251.896 220.12 250.829 218.819 250.061 217.112Z" fill="#FFD1A7"/>
<defs>
<clipPath id="clip0_315_1771">
<rect x="87" width="200" height="200" rx="100" fill="white"/>
</clipPath>
</defs>
</svg>
