<svg width="176" height="176" viewBox="0 0 176 176" fill="none" xmlns="http://www.w3.org/2000/svg">
<path fill-rule="evenodd" clip-rule="evenodd" d="M87.6813 4.24268L4.24268 87.6813L87.6813 171.12L171.12 87.6813L87.6813 4.24268ZM87.5233 30.2424L30.2427 87.5231L87.5233 144.804L144.804 87.5231L87.5233 30.2424Z" fill="#0C0C0C"/>
<path fill-rule="evenodd" clip-rule="evenodd" d="M0 87.6812L87.6812 0L175.362 87.6812L87.6812 175.362L0 87.6812ZM4.24264 87.6812L87.6812 4.24264L171.12 87.6812L87.6812 171.12L4.24264 87.6812ZM30.2426 87.523L87.5233 30.2424L144.804 87.523L87.5233 144.804L30.2426 87.523ZM87.5233 140.561L140.561 87.523L87.5233 34.485L34.4853 87.523L87.5233 140.561Z" fill="white"/>
<path fill-rule="evenodd" clip-rule="evenodd" d="M164.808 11.2805C136.808 13.2805 36.3081 72.2805 12.3081 165.281C49.8081 159.781 146.308 92.7805 164.808 11.2805ZM150.308 26.2805C127.308 31.2805 54.3081 77.2805 29.3081 148.281C57.3081 141.281 127.308 84.7805 150.308 26.2805Z" fill="#0C0C0C"/>
<path fill-rule="evenodd" clip-rule="evenodd" d="M168.629 8L167.734 11.9447C158.289 53.5528 129.035 91.1907 97.6747 119.024C81.9637 132.969 65.6389 144.529 50.8409 152.965C36.1086 161.363 22.6637 166.794 12.7437 168.249L8.2749 168.904L9.4035 164.531C21.6125 117.221 53.2183 78.7238 85.1262 51.8606C101.098 38.4138 117.213 27.8245 131.14 20.4569C144.952 13.15 156.944 8.8347 164.595 8.28819L168.629 8ZM12.3083 165.281C13.3502 165.128 14.4375 164.927 15.5675 164.681C54.5963 156.159 144.448 92.2096 164.07 14.3621C164.328 13.3373 164.575 12.3101 164.808 11.2806C163.835 11.3501 162.775 11.4884 161.633 11.6946C130.292 17.3539 37.7045 74.1423 13.1619 162.102C12.8675 163.157 12.5829 164.217 12.3083 165.281ZM29.3083 148.281C30.435 147.999 31.6297 147.637 32.8865 147.198C62.2502 136.945 125.565 84.6375 148.895 29.7353C149.384 28.5847 149.855 27.433 150.308 26.2806C149.207 26.52 147.991 26.8534 146.671 27.279C120.88 35.597 55.4203 79.1414 30.5779 144.804C30.142 145.956 29.7187 147.115 29.3083 148.281ZM145.062 31.0194C140.121 32.8723 133.854 35.8889 126.73 40.0574C116.422 46.0882 104.509 54.4177 92.5222 64.7984C69.8714 84.4135 47.1226 111.204 34.3191 143.453C40.113 141.117 47.2235 137.233 55.1357 131.991C65.8415 124.897 77.8055 115.457 89.6349 104.401C111.729 83.7527 133.128 57.6843 145.062 31.0194Z" fill="white"/>
<path fill-rule="evenodd" clip-rule="evenodd" d="M11.2803 12.0962C13.2803 40.0962 72.2803 140.596 165.28 164.596C159.78 127.096 92.7803 30.5962 11.2803 12.0962ZM26.2803 26.5962C31.2803 49.5962 77.2803 122.596 148.28 147.596C141.28 119.596 84.7803 49.5962 26.2803 26.5962Z" fill="#0C0C0C"/>
<path fill-rule="evenodd" clip-rule="evenodd" d="M8 8.27498L11.9447 9.17039C53.5528 18.6152 91.1907 47.8695 119.024 79.2296C132.969 94.9406 144.529 111.265 152.965 126.063C161.363 140.796 166.794 154.241 168.249 164.161L168.904 168.629L164.531 167.501C117.221 155.292 78.7238 123.686 51.8606 91.7781C38.4138 75.8061 27.8245 59.6917 20.4569 45.7644C13.15 31.9521 8.8347 19.9608 8.28819 12.3097L8 8.27498ZM165.281 164.596C165.128 163.554 164.927 162.467 164.681 161.337C156.159 122.308 92.2096 32.4564 14.3621 12.8341C13.3373 12.5758 12.3101 12.3297 11.2806 12.096C11.3501 13.0689 11.4884 14.1293 11.6946 15.2711C17.3539 46.6119 74.1423 139.2 162.102 163.742C163.157 164.037 164.217 164.321 165.281 164.596ZM148.281 147.596C147.999 146.469 147.637 145.275 147.198 144.018C136.945 114.654 84.6375 51.3391 29.7353 28.0093C28.5847 27.5204 27.433 27.0491 26.2806 26.596C26.52 27.6972 26.8534 28.9131 27.279 30.2328C35.597 56.024 79.1414 121.484 144.804 146.326C145.956 146.762 147.115 147.186 148.281 147.596ZM31.0194 31.8424C32.8723 36.7831 35.8889 43.0499 40.0574 50.1747C46.0882 60.4824 54.4177 72.3948 64.7984 84.3821C84.4135 107.033 111.204 129.782 143.453 142.585C141.117 136.791 137.233 129.681 131.991 121.769C124.897 111.063 115.457 99.0988 104.401 87.2694C83.7527 65.1749 57.6843 43.7761 31.0194 31.8424Z" fill="white"/>
<path fill-rule="evenodd" clip-rule="evenodd" d="M73.8384 66.0161L80.0164 72.1941C86.259 66.1359 92.6044 60.6133 98.8389 55.6613L92.7032 49.5256C86.3898 54.5697 80.0521 60.0742 73.8384 66.0161Z" fill="#0C0C0C"/>
<path fill-rule="evenodd" clip-rule="evenodd" d="M71.7168 63.8945C76.1451 59.6578 80.6327 55.6439 85.1263 51.8607C86.9398 50.3339 88.7552 48.8439 90.569 47.3914L92.7034 49.5257C86.3899 54.5699 80.0522 60.0743 73.8385 66.0163L71.7168 63.8945ZM98.839 55.6614C92.6045 60.6134 86.2591 66.136 80.0165 72.1942L82.138 74.3158C85.5777 70.979 89.0512 67.8045 92.5223 64.7985C95.3506 62.3493 98.1746 60.0143 100.974 57.7968L98.839 55.6614Z" fill="white"/>
<path fill-rule="evenodd" clip-rule="evenodd" d="M100.804 112.127L93.5298 104.852C87.2404 110.827 80.8874 116.363 74.6754 121.353L81.7412 128.419C88.1369 123.401 94.5393 117.954 100.804 112.127Z" fill="#0C0C0C"/>
<path fill-rule="evenodd" clip-rule="evenodd" d="M102.927 114.25C101.185 115.871 99.4329 117.463 97.6743 119.024C93.1098 123.075 88.4935 126.925 83.878 130.556L81.7414 128.419C88.137 123.401 94.5394 117.954 100.805 112.127L102.927 114.25ZM74.6755 121.353C80.8876 116.363 87.2405 110.827 93.5299 104.852L91.4079 102.73C90.8174 103.291 90.2262 103.848 89.6345 104.401C83.9158 109.745 78.1657 114.712 72.5415 119.219L74.6755 121.353Z" fill="white"/>
<path fill-rule="evenodd" clip-rule="evenodd" d="M103.569 20.1299L90.4897 33.2088L117.135 59.8537L130.213 46.7748L103.569 20.1299Z" fill="#0C0C0C"/>
<path fill-rule="evenodd" clip-rule="evenodd" d="M105.69 18.0087L132.335 44.6536L130.214 46.7749L103.569 20.13L105.69 18.0087ZM117.135 59.8538L90.4898 33.2089L88.3684 35.3302L115.013 61.9751L117.135 59.8538Z" fill="white"/>
<path fill-rule="evenodd" clip-rule="evenodd" d="M71.2748 154.713L84.3539 141.634L57.709 114.989L44.6299 128.069L71.2748 154.713Z" fill="#0C0C0C"/>
<path fill-rule="evenodd" clip-rule="evenodd" d="M69.1535 156.835L42.5086 130.19L44.6299 128.069L71.2748 154.713L69.1535 156.835ZM57.709 114.989L84.3539 141.634L86.4753 139.513L59.8304 112.868L57.709 114.989Z" fill="white"/>
<path fill-rule="evenodd" clip-rule="evenodd" d="M103.569 20.1299L90.4897 33.2088L117.135 59.8537L130.213 46.7748L103.569 20.1299Z" fill="#0C0C0C"/>
<path fill-rule="evenodd" clip-rule="evenodd" d="M105.69 18.0087L132.335 44.6536L130.214 46.7749L103.569 20.13L105.69 18.0087ZM117.135 59.8538L90.4898 33.2089L88.3684 35.3302L115.013 61.9751L117.135 59.8538Z" fill="white"/>
<path fill-rule="evenodd" clip-rule="evenodd" d="M71.2748 154.713L84.3539 141.634L57.709 114.989L44.6299 128.069L71.2748 154.713Z" fill="#0C0C0C"/>
<path fill-rule="evenodd" clip-rule="evenodd" d="M69.1535 156.835L42.5086 130.19L44.6299 128.069L71.2748 154.713L69.1535 156.835ZM57.709 114.989L84.3539 141.634L86.4753 139.513L59.8304 112.868L57.709 114.989Z" fill="white"/>
<path fill-rule="evenodd" clip-rule="evenodd" d="M150.154 108.648L136.917 95.4105L116.41 115.917L129.648 129.154L150.154 108.648Z" fill="#0C0C0C"/>
<path fill-rule="evenodd" clip-rule="evenodd" d="M152.275 110.769L131.769 131.275L129.647 129.154L150.154 108.647L152.275 110.769ZM116.41 115.917L136.917 95.4104L134.795 93.2891L114.289 113.795L116.41 115.917Z" fill="white"/>
<path fill-rule="evenodd" clip-rule="evenodd" d="M23.7089 68.215L36.6298 81.1359L57.1359 60.6298L44.215 47.7089L23.7089 68.215Z" fill="#0C0C0C"/>
<path fill-rule="evenodd" clip-rule="evenodd" d="M21.5875 66.0938L42.0936 45.5877L44.2149 47.709L23.7088 68.2151L21.5875 66.0938ZM57.1358 60.6299L36.6297 81.136L38.751 83.2573L59.2571 62.7512L57.1358 60.6299Z" fill="white"/>
</svg>
