<svg width="24" height="24" viewBox="0 0 24 24" fill="none" xmlns="http://www.w3.org/2000/svg">
<path d="M6.14258 16.6569C6.62347 15.1637 5.00996 12.4112 8.3129 11.209C7.79405 14.2841 12.0714 15.1637 11.097 18.2325L6.14258 16.6569Z" fill="#FF6242" stroke="#45413C" stroke-width="0.5" stroke-linecap="round" stroke-linejoin="round"/>
<path d="M18.2025 5.198C18.772 6.77354 18.5885 7.69103 17.8861 8.36174C14.6718 6.33695 10.8373 4.88163 10.2172 0.452393C3.64928 5.51438 13.4569 12.4746 8.71127 14.3728C6.36377 15.3156 4.28203 13.1074 4.59841 10.6333C3.91222 11.2762 3.3625 12.0507 2.98202 12.9106C2.60154 13.7705 2.39809 14.6981 2.38379 15.6383C2.38379 20.0043 6.77506 23.5477 12.1914 23.5477C24.5932 23.5477 23.5808 7.09625 18.2025 5.198Z" fill="#FF6242" stroke="#45413C" stroke-width="0.5" stroke-linecap="round" stroke-linejoin="round"/>
<path d="M16.6198 15.0056C15.6707 17.853 13.1271 18.9856 10.8682 19.1058C11.1147 19.6708 11.5209 20.1514 12.0369 20.4886C12.5529 20.8258 13.1561 21.005 13.7725 21.0041C17.3285 21.0167 19.7836 17.2202 16.6198 15.0056Z" fill="#FFE500" stroke="#45413C" stroke-width="0.5" stroke-linecap="round" stroke-linejoin="round"/>
</svg>
